<?xml version="1.0" standalone="no"?>
<!DOCTYPE svg PUBLIC "-//W3C//DTD SVG 20010904//EN"
 "http://www.w3.org/TR/2001/REC-SVG-20010904/DTD/svg10.dtd">
<svg version="1.0" xmlns="http://www.w3.org/2000/svg"
 width="700.000000pt" height="700.000000pt" viewBox="0 0 700.000000 700.000000"
 preserveAspectRatio="xMidYMid meet">
<metadata>
Created by potrace 1.14, written by Peter Selinger 2001-2017
</metadata>
<g transform="translate(0.000000,700.000000) scale(0.100000,-0.100000)"
fill="#000000" stroke="none">
<path d="M2655 6290 c-22 -5 -56 -11 -76 -14 -53 -8 -203 -63 -267 -97 -233
-127 -409 -327 -495 -564 -51 -142 -62 -209 -61 -375 1 -130 5 -170 26 -247
l24 -93 -230 -1 c-127 0 -243 -2 -257 -4 -77 -10 -107 -18 -168 -42 -165 -65
-298 -185 -374 -338 -46 -93 -66 -163 -73 -260 -19 -253 98 -495 306 -634 63
-42 98 -60 190 -92 l65 -24 942 -3 941 -3 4 224 c2 171 6 228 17 240 7 10 11
17 7 17 -13 0 57 101 92 131 66 58 136 84 232 84 76 0 92 -3 152 -33 77 -38
130 -92 167 -171 25 -54 26 -63 29 -274 l3 -217 912 0 c754 1 924 3 979 15
271 58 478 264 542 537 20 84 17 227 -6 316 -63 246 -248 438 -484 503 -98 27
-94 27 -365 28 l-236 1 25 93 c33 126 39 334 12 458 -50 230 -150 412 -308
561 -152 143 -365 248 -561 276 -59 9 -251 9 -317 0 -147 -19 -336 -97 -465
-193 -41 -30 -79 -55 -85 -55 -6 0 -18 7 -25 16 -43 52 -227 154 -349 193
-133 43 -352 62 -465 41z m301 -730 c72 -35 124 -90 163 -170 25 -53 26 -62
29 -273 l3 -218 -218 3 -219 3 -65 32 c-201 99 -261 351 -124 526 104 132 279
172 431 97z m1398 1 c120 -59 190 -169 191 -301 0 -86 -5 -112 -33 -166 -36
-69 -90 -122 -160 -156 l-66 -33 -219 -3 -218 -4 3 219 c3 210 4 220 29 273
31 67 65 107 119 145 107 74 237 84 354 26z"/>
<path d="M1053 2218 c1 -513 6 -946 10 -962 69 -265 232 -440 492 -529 58 -20
83 -21 828 -24 l767 -4 0 1226 0 1225 -1050 0 -1051 0 4 -932z"/>
<path d="M3850 1925 l0 -1226 763 4 c848 3 804 0 952 74 159 79 282 219 344
388 40 111 41 125 41 1073 l0 912 -1050 0 -1050 0 0 -1225z"/>
</g>
</svg>
